<?xml version="1.0" encoding="UTF-8"?>
<svg id="Layer_2" xmlns="http://www.w3.org/2000/svg" viewBox="0 0 464.19 160.8">
  <defs>
    <style>
      .cls-1 {
        fill: #fff;
      }
    </style>
  </defs>
  <g id="Layer_2-2" data-name="Layer_2">
    <g>
      <path class="cls-1" d="M56,16.8c-10,0-28.4,13.4-28.4,32,0,12.6,5,15.4,5,17.6,0,1.2-1.2,2-3.2,2-9.6,0-29.4-9.4-29.4-27C0,17,34.8,0,63,0c13.4,0,26,8,26,21.2,0,8.8-5,21.4-10.6,35.2,12-4.4,35.8-18.2,35.8-41.6,0-4-.6-5.8-.6-7,0-1.6,1-2.6,2.6-2.6,9,0,26.6,9,26.6,23.4,0,16-46.8,39.8-58.6,41.6,21.2,7.6,18.6,43.6,35.2,43.6,3.6,0,6.2-1.8,8-1.8,1,0,1.8.8,1.8,1.6,0,4.2-11.4,20.2-27.2,20.2-33,0-17.8-48.2-32.8-53.2-8.2,19.8-13.8,36.4-13.8,50.2,0,3-.6,4.8-3.8,4.8-9.4,0-27.6-2.4-27.6-9.6,0-16.8,35.4-93.6,35.4-106.2,0-1.8-1.6-3-3.4-3Z"/>
      <path class="cls-1" d="M188.6,78.6c-3,0-9.6,4.4-15.4,13.4-7,11-15.2,28.4-15.2,37,0,3-.6,4.8-3.8,4.8-9.4,0-22.4-2.4-22.4-9.6,0-14.4,18.2-43.2,18.2-59.2,0-2,1.8-3.4,5.6-3.4,17.8,0,18.6,14.6,19.4,14.6s14.2-14.6,32.2-14.6c10,0,15.2,5.2,15.2,13.2,0,13.6-16.4,31.4-16.4,50.8,0,10,6.4,17.8,18.6,17.8,6.2,0,9-2.2,10.6-2.2,1.4,0,2.6,1,2.6,2.4,0,4-12.6,17.2-34,17.2-16.8,0-30.2-11-30.2-27.2,0-23.4,18.2-43.8,18.2-51.8,0-1.8-1-3.2-3.2-3.2Z"/>
      <path class="cls-1" d="M275,61.2c20,0,31,9.4,31,23.4,0,24.2-24,49-55.8,49-16.2,0-28-7.6-28-22,0-17.2,14.2-27.8,18.8-30.8-.2-1-.2-1.8-.2-2.6,0-8.8,16.4-17,34.2-17ZM255.2,119.2c10.8,0,23.2-26.2,23.2-38.4,0-5-1.8-6.6-5.6-6.6-5.4,0-11.8,6-11.8,13.2,0,4.2,1.8,6.2,1.8,8.2,0,1.2-1.2,2.6-2.8,2.6-2.4,0-5.4-1.4-8.2-3.6-1.6,4-3,9-3,14.4,0,7.2,2.4,10.2,6.4,10.2Z"/>
      <path class="cls-1" d="M347.4,86.4c0,.6.4.8.8.8,7.8,0,19.6-12.6,22.2-23,.6-1.8,2-2.6,4-2.6,7.4,0,22,.6,22,6.8,0,11.8-29.4,29.2-43.8,31.2,0,0,7.8,10.8,22.4,10.8,4.4,0,5.4-1.2,7.4-1.2s2.8.8,2.8,2.6c0,6.6-13.6,22-27.6,22-11,0-14.2-24.4-18-24.4-2.4,0-7,14.6-7.4,20.2-.2,3-1,4.2-3.8,4.2-9.4,0-22.4-2.4-22.4-9.6,0-14.4,38.8-90.8,38.8-106.8,0-2,1.8-3.4,5.6-3.4,8.4,0,19.6,9,19.6,14.6,0,8.8-22.6,55.6-22.6,57.8Z"/>
      <path class="cls-1" d="M453.99,61.6c6.2,0,10.2,3.6,10.2,10.2,0,10.4-13,24.6-18.8,24.6-2,0-2.8-.8-3.2-2.4-1-3.2-.8-10.4-5.6-10.4-2.2,0-5.8,2.2-9.2,7.8-6.6,10.6-14,31.2-14,37.6,0,3-.6,4.8-3.8,4.8-9.4,0-22.4-2.4-22.4-9.6,0-14.4,18.4-43.2,18.4-59.2,0-2,1.8-3.4,5.6-3.4,17.8,0,17.6,12.8,18.4,12.8s10.8-12.8,24.4-12.8Z"/>
    </g>
  </g>
</svg>