<?xml version="1.0" encoding="UTF-8"?>
<svg id="Layer_1" xmlns="http://www.w3.org/2000/svg" viewBox="0 0 500 500">
  <defs>
    <style>
      .cls-1 {
        fill: #fff;
      }

      .cls-2 {
        fill: #0080ff;
      }
    </style>
  </defs>
  <rect class="cls-2" width="500" height="500"/>
  <path class="cls-1" d="M211.5,122.5c-25,0-71,33.5-71,80,0,31.5,12.5,38.5,12.5,44,0,3-3,5-8,5-24,0-73.5-23.5-73.5-67.5,0-61,87-103.5,157.5-103.5,33.5,0,65,20,65,53,0,22-12.5,53.5-26.5,88,30-11,89.5-45.5,89.5-104,0-10-1.5-14.5-1.5-17.5,0-4,2.5-6.5,6.5-6.5,22.5,0,66.5,22.5,66.5,58.5,0,40-117,99.5-146.5,104,53,19,46.5,109,88,109,9,0,15.5-4.5,20-4.5,2.5,0,4.5,2,4.5,4,0,10.5-28.5,50.5-68,50.5-82.5,0-44.5-120.5-82-133-20.5,49.5-34.5,91-34.5,125.5,0,7.5-1.5,12-9.5,12-23.5,0-69-6-69-24,0-42,88.5-234,88.5-265.5,0-4.5-4-7.5-8.5-7.5Z"/>
</svg>